<?xml version="1.0" encoding="UTF-8"?>
<svg width="175px" height="121px" viewBox="0 0 175 121" version="1.1" xmlns="http://www.w3.org/2000/svg" xmlns:xlink="http://www.w3.org/1999/xlink">
    <title>Diventa Copy</title>
    <g id="Page-1" stroke="none" stroke-width="1" fill="none" fill-rule="evenodd">
        <g id="Diventa-Copy" fill="#403449">
            <g id="Group" transform="translate(0.000000, 92.000000)">
                <path d="M103.177946,11.1254001 L100.682258,3.86772023 L98.1873978,11.1254001 L103.177946,11.1254001 Z M104.089832,13.7316471 L97.2986814,13.7316471 L96.0988316,17.1904048 L92.523279,17.1904048 L98.7624982,0.188905547 L102.626015,0.188905547 L108.842064,17.1904048 L105.265684,17.1904048 L104.089832,13.7316471 L104.089832,13.7316471 Z" id="Fill-82-Copy"></path>
                <polyline id="Fill-83-Copy" points="70.4628579 17.1904048 67.2014123 17.1904048 59.8920732 5.63131182 59.8920732 17.1904048 56.6306277 17.1904048 56.6306277 0.188905547 59.8920732 0.188905547 67.2014123 11.8443243 67.2014123 0.188905547 70.4628579 0.188905547 70.4628579 17.1904048"></polyline>
                <path d="M9.61125441,12.7112563 C10.5763679,11.7479985 11.0549366,10.3994377 11.0549366,8.66557373 C11.0549366,6.91593228 10.5763679,5.55989789 9.61125441,4.59580974 C8.6461409,3.632552 7.29019629,3.15092312 5.52746831,3.15092312 L3.2622432,3.15092312 L3.2622432,14.1569733 L5.52746831,14.1569733 C7.29019629,14.1569733 8.6461409,13.674514 9.61125441,12.7112563 Z M13.3440902,13.1206408 C12.6661178,14.4052613 11.685052,15.4050564 10.4008927,16.1191958 C9.10875729,16.8333351 7.5773375,17.1904048 5.80663337,17.1904048 L0,17.1904048 L0,0.188905547 L5.80663337,0.188905547 C7.5773375,0.188905547 9.10875729,0.538501678 10.4008927,1.23686355 C11.685052,1.93522541 12.6661178,2.9225646 13.3440902,4.19888112 C14.0220625,5.47519764 14.3650367,6.96409517 14.3650367,8.66557373 C14.3650367,10.3521052 14.0220625,11.8368507 13.3440902,13.1206408 L13.3440902,13.1206408 Z" id="Fill-84-Copy"></path>
                <rect id="Rectangle" x="16.749904" y="0.188905547" width="3.1904579" height="17.0014993"></rect>
                <g id="T" transform="translate(73.189990, 0.188906)">
                    <rect id="Rectangle-Copy-7" x="6.57145703" y="0.190254873" width="3.1904579" height="16.5724138"></rect>
                    <polygon id="Rectangle-Copy-8" transform="translate(8.166632, 1.809445) rotate(90.000000) translate(-8.166632, -1.809445) " points="6.54744157 -6.35419287 9.78582238 -6.35419287 9.78582238 9.97308343 6.54744157 9.97308343"></polygon>
                </g>
                <g id="E" transform="translate(39.880724, 0.188906)">
                    <rect id="Rectangle-Copy-3" x="0" y="0" width="3.1904579" height="17.0014993"></rect>
                    <polygon id="Rectangle-Copy-4" transform="translate(7.178530, 1.619190) rotate(90.000000) translate(-7.178530, -1.619190) " points="5.55933986 -5.55933986 8.79772067 -5.55933986 8.79772067 8.79772067 5.55933986 8.79772067"></polygon>
                    <polygon id="Rectangle-Copy-5" transform="translate(7.178530, 8.500750) rotate(90.000000) translate(-7.178530, -8.500750) " points="5.55933986 1.32221936 8.79772067 1.32221936 8.79772067 15.6792799 5.55933986 15.6792799"></polygon>
                    <polygon id="Rectangle-Copy-6" transform="translate(7.178530, 15.382309) rotate(90.000000) translate(-7.178530, -15.382309) " points="5.55933986 8.20377858 8.79772067 8.20377858 8.79772067 22.5608391 5.55933986 22.5608391"></polygon>
                </g>
                <g id="V" transform="translate(22.606388, 0.000000)">
                    <polygon id="Rectangle-Copy" transform="translate(4.512504, 8.689655) rotate(-20.000000) translate(-4.512504, -8.689655) " points="2.95490257 0.21132214 6.15096638 0.195920013 6.07010521 17.1679882 2.8740414 17.1833903"></polygon>
                    <polygon id="Triangle" transform="translate(7.399899, 15.921936) rotate(180.000000) translate(-7.399899, -15.921936) " points="7.39989906 13.8979477 9.79274249 17.9459237 5.00705564 17.9459237"></polygon>
                    <polygon id="Rectangle-Copy-2" transform="translate(10.095805, 8.689655) rotate(20.000000) translate(-10.095805, -8.689655) " points="8.45734272 0.195920013 11.6534065 0.21132214 11.7342677 17.1833903 8.53820388 17.1679882"></polygon>
                </g>
            </g>
            <path d="M69,0 C69,0 111.89379,16.141605 110.983749,39.5 L111,39.5 L111,79 C111,79 68.1037725,62.858395 69.0146257,39.5 L69,39.5 L69,0" id="Fill-85"></path>
            <path d="M148,69 C155.875336,63.6409236 165.119594,60.1656051 175,59.1592357 L175,47 C169.282732,49.1711783 163.911721,52.294586 159.104384,56.3256369 C154.699672,60.0175159 150.979421,64.2961783 148,69" id="Fill-86"></path>
            <path d="M143.31795,73.0387019 C146.732206,66.0780085 151.557046,59.8244306 157.624163,54.6528926 C162.857752,50.1868575 168.740531,46.7730296 175,44.4694618 L175,9 C175,9 114.745597,31.8849022 116.019932,65 L116.003903,65 L116.003903,121 C116.003903,121 118.688822,119.977625 122.912561,118.058658 C122.896532,116.262246 122.952635,114.456158 123.104914,112.64362 C124.411307,96.6613586 132.049302,82.7020762 143.31795,73.0387019" id="Fill-87"></path>
            <path d="M136.852387,93.5366994 C137.17902,89.5824186 137.905779,85.7238713 139,82 C131.838568,90.3985874 127.143216,101.003102 126.163317,112.785626 C126.073492,113.859788 126.024497,114.930705 126,116 C129.486809,114.331154 133.545226,112.257469 137.807789,109.815453 C136.738065,104.527393 136.395101,99.0608476 136.852387,93.5366994" id="Fill-88"></path>
            <path d="M139.190147,94.4175715 C138.772133,99.3603467 139.050809,104.25186 139.952408,109 C156.78771,99.1577018 175.713082,83.949717 174.975411,65.565893 L175,65.565893 L175,64 C162.746457,65.3240006 151.566635,70.6135951 142.968664,78.6184721 C140.93597,83.6077035 139.657339,88.9165213 139.190147,94.4175715" id="Fill-89"></path>
        </g>
    </g>
</svg>