<svg xmlns="http://www.w3.org/2000/svg" xmlns:xlink="http://www.w3.org/1999/xlink" width="159" height="49" viewBox="0 0 159 49">
    <defs>
        <path id="prefix__a" d="M0 0H202V98H0z"/>
    </defs>
    <g fill="none" fill-rule="evenodd" transform="translate(-25 -24)">
        <mask id="prefix__b" fill="#fff">
            <use xlink:href="#prefix__a"/>
        </mask>
        <g mask="url(#prefix__b)">
            <g fill-rule="nonzero">
                <g fill="#151B44">
                    <path d="M103.009 10.795c0-.985.601-1.873 1.523-2.25.922-.376 1.984-.168 2.69.528.706.696.917 1.744.535 2.653-.382.91-1.282 1.503-2.28 1.503-1.363 0-2.468-1.09-2.468-2.434zm4.581 0c-.007-1.15-.957-2.076-2.122-2.071-1.166.005-2.107.94-2.105 2.09.003 1.149.948 2.08 2.114 2.08.562-.002 1.1-.224 1.497-.618.396-.393.618-.926.616-1.481zm-2.19.33h-.125v.904h-.619V9.561h.849c.57 0 .924.294.924.775 0 .52-.417.672-.417.672l.584 1.022h-.681l-.515-.906zm.09-.57c.202 0 .293-.055.293-.206 0-.144-.084-.22-.3-.22h-.208v.426h.216z" transform="translate(25 24) translate(50.71 7.223)"/>
                    <g>
                        <path d="M18.355 17.643c0 5.606-3.989 9.467-8.768 9.467-1.958 0-3.65-.668-4.855-2.005v9.245H.027V8.36h3.688l.527 1.783h.565c1.167-1.263 2.747-1.968 4.78-1.968 4.78 0 8.768 3.86 8.768 9.468zm-4.892 0c0-3.268-2.296-4.902-4.591-4.902-2.447 0-4.14 1.82-4.14 4.902 0 3.081 1.693 4.9 4.14 4.9 2.295 0 4.591-1.634 4.591-4.9zM37.926 8.36v18.564h-3.688l-.527-1.782h-.564c-1.168 1.263-2.748 1.968-4.78 1.968-4.78 0-8.77-3.862-8.77-9.468s3.99-9.468 8.77-9.468c1.957 0 3.65.669 4.855 2.005V8.36h4.704zm-4.704 9.283c0-3.082-1.694-4.901-4.14-4.901-2.296 0-4.592 1.633-4.592 4.9 0 3.268 2.296 4.902 4.591 4.902 2.447 0 4.14-1.82 4.14-4.901zM40.448 3.162c0-1.782 1.468-3.156 3.237-3.156.844.001 1.654.335 2.248.928.593.593.922 1.395.913 2.228 0 1.671-1.43 3.12-3.161 3.12-1.77 0-3.237-1.449-3.237-3.12zm5.645 23.762h-4.817V8.36h4.817v18.564zM94.866 12.11c-1.58 0-2.258.78-2.258 1.56 0 1.262 1.694 1.633 2.823 1.856 3.35.706 6.737 1.708 6.737 5.643 0 3.825-3.2 5.94-7.076 5.94-4.328 0-7.677-2.598-7.903-6.533h4.629c.113 1.113.866 2.561 3.161 2.561 1.92 0 2.371-1.002 2.371-1.782 0-1.374-1.317-1.782-2.597-2.08-2.22-.482-7-1.373-7-5.605 0-3.639 3.538-5.495 7.19-5.495 4.214 0 7 2.524 7.225 5.643h-4.63c-.15-.631-.752-1.708-2.672-1.708zM80.034 8.36v8.725c0 4.864-2.71 5.718-4.366 5.718-3.236 0-3.424-3.193-3.424-5.495V8.36H61.442l-3.613 5.57h-.452l-3.65-5.57H48.42l5.833 9.022-6.21 9.542h5.42l3.876-6.275h.527l3.838 6.275h5.42l-6.21-9.542 3.594-5.558h2.616v6.598c0 5.198 2.56 8.688 7.565 8.688 3.086 0 4.742-1.337 5.495-2.265h.49l.677 2.08h3.763V8.36h-5.08z" transform="translate(25 24) translate(50.71 7.223)"/>
                    </g>
                </g>
                <g>
                    <path fill="#2ABBFF" d="M.052.034v28.424c0 11.144 9.158 20.178 20.454 20.178 11.296 0 20.454-9.034 20.454-20.178V.034H.052z" transform="translate(25 24) translate(0 .038)"/>
                    <path fill="#FFF" d="M20.506 36.704v-8.246c4.616 0 8.359-3.692 8.359-8.246s-3.743-8.246-8.36-8.246h-8.358v16.492c0 4.554 3.742 8.246 8.359 8.246" transform="translate(25 24) translate(0 .038)"/>
                </g>
            </g>
        </g>
    </g>
</svg>
