<?xml version="1.0" encoding="UTF-8"?>
<svg width="32px" height="37px" viewBox="0 0 32 37" version="1.1" xmlns="http://www.w3.org/2000/svg" xmlns:xlink="http://www.w3.org/1999/xlink">
    <title>Diventa Copy 2</title>
    <g id="Page-1" stroke="none" stroke-width="1" fill="none" fill-rule="evenodd">
        <g id="Diventa-Copy-2" fill="#403449">
            <path d="M0,0 C0,0 13.2766493,4.90377873 12.99497,12 L13,12 L13,24 C13,24 -0.277403753,19.0962213 0.00452698781,12 L0,12 L0,0" id="Fill-85"></path>
            <path d="M24,21 C26.3334327,19.2948393 29.0724724,18.1890562 32,17.8688477 L32,14 C30.3059946,14.6908295 28.714584,15.684641 27.2901879,16.9672481 C25.985088,18.1419369 24.8827915,19.5033295 24,21" id="Fill-86"></path>
            <path d="M22.3342897,22.4403202 C23.3759271,20.3272526 24.8479123,18.428845 26.6988971,16.8589138 C28.2955854,15.5031532 30.0903315,14.4668126 32,13.7675152 L32,3 C32,3 13.6173008,9.94720246 14.006081,20 L14.0011907,20 L14.0011907,37 C14.0011907,37 14.8203187,36.6896363 16.108917,36.1070925 C16.1040267,35.5617531 16.1211428,35.0134765 16.1676008,34.4632419 C16.5661616,29.6114839 18.8963973,25.3738446 22.3342897,22.4403202" id="Fill-87"></path>
            <path d="M20.339196,28.3931469 C20.4396985,27.2301231 20.6633166,26.0952563 21,25 C18.7964824,27.4701728 17.3517588,30.5891477 17.0502513,34.0545958 C17.0226131,34.3705259 17.0075377,34.6855016 17,35 C18.0728643,34.5091629 19.321608,33.8992555 20.6331658,33.1810156 C20.3040201,31.6257039 20.1984925,30.0178963 20.339196,28.3931469" id="Fill-88"></path>
            <path d="M21.0581005,28.4632445 C20.930374,30.0009968 21.015525,31.5228009 21.2910134,33 C26.4351337,29.9379517 32.2178863,25.2065786 31.9924867,19.4871667 L32,19.4871667 L32,19 C28.2558618,19.4119113 24.8398053,21.0575629 22.2126474,23.5479691 C21.5915462,25.1001744 21.2008536,26.7518066 21.0581005,28.4632445" id="Fill-89"></path>
        </g>
    </g>
</svg>